<svg width="126" height="51" viewBox="0 0 126 51" fill="none" xmlns="http://www.w3.org/2000/svg">
<g filter="url(#filter0_d_3_6)">
<path d="M24.0312 21.4688C24.1979 21.6354 24.4583 21.7188 24.8125 21.7188C25.1667 21.7188 25.4688 21.6458 25.7188 21.5C25.1771 18.3333 24.8125 16.4583 24.625 15.875C24.3958 15.2708 24.0521 14.9688 23.5938 14.9688C23.3854 14.9688 23.1354 15.0312 22.8438 15.1562L24.0312 21.4688ZM17.8438 30.8438C17.6354 31.1354 17.5312 31.4062 17.5312 31.6562C17.5312 32.2604 18.0938 32.7708 19.2188 33.1875C20.3646 33.5833 21.75 33.8333 23.375 33.9375C23.6458 36.9375 23.9375 38.6458 24.25 39.0625C23.8542 39.8333 22.7604 40.6146 20.9688 41.4062C19.1771 42.1771 17.1562 42.5625 14.9062 42.5625C11.9271 42.5625 9.375 41.9271 7.25 40.6562C5.125 39.3646 4.0625 37.7083 4.0625 35.6875C4.0625 35.1458 4.11458 34.6667 4.21875 34.25L10.875 4.5C12.5417 3.4375 14.5312 2.60417 16.8438 2C19.1562 1.39583 21.5625 1.09375 24.0625 1.09375C27.6458 1.09375 30.7083 1.69792 33.25 2.90625C36.1458 4.28125 37.9062 6.27083 38.5312 8.875L45.6562 38.3438C43.4896 41.1562 39.9583 42.5625 35.0625 42.5625C32.6875 42.5625 30.6771 42.1354 29.0312 41.2812C27.3854 40.4271 26.4271 39.2083 26.1562 37.625L25.4688 33.8125C26.7188 33.7917 27.9271 33.5521 29.0938 33.0938C30.2604 32.6354 30.8438 32.1562 30.8438 31.6562C30.8438 31.3229 30.7083 31.0521 30.4375 30.8438C29.6458 31.4062 28.6771 31.8333 27.5312 32.125C26.3854 32.4167 25.3229 32.5625 24.3438 32.5625C21.5312 32.5625 19.3646 31.9896 17.8438 30.8438ZM65.1875 29.5625C65.3958 29.5625 65.5833 29.5104 65.75 29.4062V26.5625C67.1667 25.6042 69.1458 24.8229 71.6875 24.2188C74.25 23.6146 76.7396 23.3125 79.1562 23.3125C80.2604 24.4375 81.1771 26.125 81.9062 28.375C82.6562 30.6042 83.0521 32.625 83.0938 34.4375C82.6771 35.2708 81.9688 36.1667 80.9688 37.125C79.9896 38.0833 78.8021 38.9688 77.4062 39.7812C73.9479 41.8229 69.9792 42.8438 65.5 42.8438C59.0833 42.8438 54.0312 40.9792 50.3438 37.25C46.5312 33.4792 44.625 28.2604 44.625 21.5938C44.625 14.9062 46.7083 9.65625 50.875 5.84375C52.7083 4.13542 54.8438 2.85417 57.2812 2C59.7188 1.125 62.2812 0.6875 64.9688 0.6875C70.2188 0.6875 74.5208 1.95833 77.875 4.5C81.2292 7.04167 82.9062 10.1771 82.9062 13.9062C82.9062 16.7188 82.0417 18.8021 80.3125 20.1562C78.5833 21.4896 76.2396 22.1562 73.2812 22.1562C71.6562 22.1562 70.0208 21.7604 68.375 20.9688C66.7292 20.1562 65.75 19.3958 65.4375 18.6875C65.4375 16.9792 65.4688 15.6354 65.5312 14.6562C65.4896 14.6354 65.4167 14.625 65.3125 14.625H65.0938C64.7812 14.625 64.5312 14.7188 64.3438 14.9062C64.1771 15.0729 64.0208 15.4375 63.875 16C63.75 16.5625 63.6875 18.0938 63.6875 20.5938C63.6875 26.5729 64.1875 29.5625 65.1875 29.5625ZM102.344 21.0312C102.427 21.0938 102.667 21.125 103.062 21.125C103.458 21.125 103.76 20.9688 103.969 20.6562C104.177 20.3438 104.281 19.8333 104.281 19.125V16.75C104.281 16 104.188 15.4688 104 15.1562C103.833 14.8229 103.542 14.6562 103.125 14.6562C102.729 14.6562 102.458 14.6979 102.312 14.7812C102.333 14.8854 102.344 15.0625 102.344 15.3125V21.0312ZM103.125 35.1562V39.9375C102.208 40.7083 100.917 41.3438 99.25 41.8438C97.5833 42.3229 95.8438 42.5625 94.0312 42.5625C91.4479 42.5625 89.3333 42.0625 87.6875 41.0625C85.8125 39.9167 84.875 38.2604 84.875 36.0938V6.40625C84.875 5.73958 85.3229 5.07292 86.2188 4.40625C87.1354 3.73958 88.3958 3.13542 90 2.59375C93.4375 1.42708 97.3646 0.84375 101.781 0.84375C107.885 0.84375 112.75 2.36458 116.375 5.40625C120 8.44792 121.812 12.5417 121.812 17.6875C121.812 22.8125 120.177 26.8021 116.906 29.6562C113.76 32.3646 109.396 33.7188 103.812 33.7188C102.542 33.7188 101.177 33.5729 99.7188 33.2812C98.2812 32.9688 97.3125 32.6979 96.8125 32.4688C96.6458 32.6354 96.5625 32.8646 96.5625 33.1562C96.5625 34.2188 98.75 34.8854 103.125 35.1562Z" fill="black"/>
</g>
<defs>
<filter id="filter0_d_3_6" x="0.0625" y="0.6875" width="125.75" height="50.1562" filterUnits="userSpaceOnUse" color-interpolation-filters="sRGB">
<feFlood flood-opacity="0" result="BackgroundImageFix"/>
<feColorMatrix in="SourceAlpha" type="matrix" values="0 0 0 0 0 0 0 0 0 0 0 0 0 0 0 0 0 0 127 0" result="hardAlpha"/>
<feOffset dy="4"/>
<feGaussianBlur stdDeviation="2"/>
<feComposite in2="hardAlpha" operator="out"/>
<feColorMatrix type="matrix" values="0 0 0 0 0 0 0 0 0 0 0 0 0 0 0 0 0 0 0.25 0"/>
<feBlend mode="normal" in2="BackgroundImageFix" result="effect1_dropShadow_3_6"/>
<feBlend mode="normal" in="SourceGraphic" in2="effect1_dropShadow_3_6" result="shape"/>
</filter>
</defs>
</svg>
