<svg width="168" height="93" viewBox="0 0 168 93" fill="none" xmlns="http://www.w3.org/2000/svg">
<g filter="url(#filter0_d_48_2)">
<path d="M44.8125 41.9375C45.1458 42.2708 45.6667 42.4375 46.375 42.4375C47.0833 42.4375 47.6875 42.2917 48.1875 42C47.1042 35.6667 46.375 31.9167 46 30.75C45.5417 29.5417 44.8542 28.9375 43.9375 28.9375C43.5208 28.9375 43.0208 29.0625 42.4375 29.3125L44.8125 41.9375ZM32.4375 60.6875C32.0208 61.2708 31.8125 61.8125 31.8125 62.3125C31.8125 63.5208 32.9375 64.5417 35.1875 65.375C37.4792 66.1667 40.25 66.6667 43.5 66.875C44.0417 72.875 44.625 76.2917 45.25 77.125C44.4583 78.6667 42.2708 80.2292 38.6875 81.8125C35.1042 83.3542 31.0625 84.125 26.5625 84.125C20.6042 84.125 15.5 82.8542 11.25 80.3125C7 77.7292 4.875 74.4167 4.875 70.375C4.875 69.2917 4.97917 68.3333 5.1875 67.5L18.5 8C21.8333 5.875 25.8125 4.20833 30.4375 3C35.0625 1.79167 39.875 1.1875 44.875 1.1875C52.0417 1.1875 58.1667 2.39583 63.25 4.8125C69.0417 7.5625 72.5625 11.5417 73.8125 16.75L88.0625 75.6875C83.7292 81.3125 76.6667 84.125 66.875 84.125C62.125 84.125 58.1042 83.2708 54.8125 81.5625C51.5208 79.8542 49.6042 77.4167 49.0625 74.25L47.6875 66.625C50.1875 66.5833 52.6042 66.1042 54.9375 65.1875C57.2708 64.2708 58.4375 63.3125 58.4375 62.3125C58.4375 61.6458 58.1667 61.1042 57.625 60.6875C56.0417 61.8125 54.1042 62.6667 51.8125 63.25C49.5208 63.8333 47.3958 64.125 45.4375 64.125C39.8125 64.125 35.4792 62.9792 32.4375 60.6875ZM124.938 41.0625C125.104 41.1875 125.583 41.25 126.375 41.25C127.167 41.25 127.771 40.9375 128.188 40.3125C128.604 39.6875 128.812 38.6667 128.812 37.25V32.5C128.812 31 128.625 29.9375 128.25 29.3125C127.917 28.6458 127.333 28.3125 126.5 28.3125C125.708 28.3125 125.167 28.3958 124.875 28.5625C124.917 28.7708 124.938 29.125 124.938 29.625V41.0625ZM126.5 69.3125V78.875C124.667 80.4167 122.083 81.6875 118.75 82.6875C115.417 83.6458 111.938 84.125 108.312 84.125C103.146 84.125 98.9167 83.125 95.625 81.125C91.875 78.8333 90 75.5208 90 71.1875V11.8125C90 10.4792 90.8958 9.14583 92.6875 7.8125C94.5208 6.47917 97.0417 5.27083 100.25 4.1875C107.125 1.85417 114.979 0.6875 123.812 0.6875C136.021 0.6875 145.75 3.72917 153 9.8125C160.25 15.8958 163.875 24.0833 163.875 34.375C163.875 44.625 160.604 52.6042 154.062 58.3125C147.771 63.7292 139.042 66.4375 127.875 66.4375C125.333 66.4375 122.604 66.1458 119.688 65.5625C116.812 64.9375 114.875 64.3958 113.875 63.9375C113.542 64.2708 113.375 64.7292 113.375 65.3125C113.375 67.4375 117.75 68.7708 126.5 69.3125Z" fill="black"/>
</g>
<defs>
<filter id="filter0_d_48_2" x="0.875" y="0.6875" width="167" height="91.4375" filterUnits="userSpaceOnUse" color-interpolation-filters="sRGB">
<feFlood flood-opacity="0" result="BackgroundImageFix"/>
<feColorMatrix in="SourceAlpha" type="matrix" values="0 0 0 0 0 0 0 0 0 0 0 0 0 0 0 0 0 0 127 0" result="hardAlpha"/>
<feOffset dy="4"/>
<feGaussianBlur stdDeviation="2"/>
<feComposite in2="hardAlpha" operator="out"/>
<feColorMatrix type="matrix" values="0 0 0 0 0 0 0 0 0 0 0 0 0 0 0 0 0 0 0.25 0"/>
<feBlend mode="normal" in2="BackgroundImageFix" result="effect1_dropShadow_48_2"/>
<feBlend mode="normal" in="SourceGraphic" in2="effect1_dropShadow_48_2" result="shape"/>
</filter>
</defs>
</svg>
